<svg id="Layer_1" data-name="Layer 1" xmlns="http://www.w3.org/2000/svg" viewBox="0 0 16 16"><defs><style>.cls-1{fill:#fff;}.cls-2{fill:#1bdb6d;}.cls-3{fill:#09c;}.cls-4{fill:#383838;}.cls-5,.cls-6{fill:none;}.cls-6{stroke:#fff;stroke-linecap:round;stroke-linejoin:round;stroke-width:0.05px;}</style></defs><circle class="cls-1" cx="8.02" cy="8.45" r="3.47"/><rect class="cls-2" x="10.6" y="1.79" width="1.1" height="1.1" rx="0.04"/><rect class="cls-3" x="12.02" y="1" width="1.1" height="1.1" rx="0.04"/><path class="cls-3" d="M10.29,11.75l-.26.17h0l-1.39-.05-1.4,0L6,11.79a.31.31,0,0,1-.29-.38c0-.09,0-.21.06-.34l0-.12c.1-.55.22-1.3.28-2l0-.4c0-.19,0-.37,0-.55V7.72c0-.19,0-.36,0-.52a.31.31,0,0,1,.29-.37l3.22-.17A.31.31,0,0,1,9.88,7c0,.18,0,.42,0,.71v.21c0,.27,0,.55,0,.86,0,.08,0,.16,0,.24a12.54,12.54,0,0,0,.28,2,.83.83,0,0,1,0,.15c0,.12.07.24.1.35A.31.31,0,0,1,10.29,11.75Z"/><path class="cls-2" d="M9.18,9.25a1.14,1.14,0,0,1-.26,0c-.53-.1-.72-.75-.76-.94L8,8.2v0l-.12,0c-.08.23-.26.88-.8,1a1.06,1.06,0,0,1-.25,0A1,1,0,0,1,5.78,8.3l-.07-.12h0v-.3l.16-.13a2.63,2.63,0,0,1,.77-.1,4.3,4.3,0,0,1,1.3.21l.12,0a4.45,4.45,0,0,1,1.36-.23,2.4,2.4,0,0,1,.76.1l.13.07,0,.36-.1.12h0a1,1,0,0,1-1.08.95Z"/><path class="cls-1" d="M9.41,7.67a3,3,0,0,1,.76.09h0l.11.06a.1.1,0,0,1,0,0v.3a.06.06,0,0,1-.05.06h0a.07.07,0,0,0,0,.06,1,1,0,0,1-1.07.94l-.25,0c-.54-.1-.72-.78-.76-.94s0,0,0,0L8,8.2H8l-.09,0,0,0c0,.16-.21.84-.75.94l-.25,0A1,1,0,0,1,5.8,8.3a.06.06,0,0,0,0-.06h0s0,0,0-.06v-.3a.05.05,0,0,1,0,0l.12-.06h0a2.81,2.81,0,0,1,.75-.09,4.33,4.33,0,0,1,1.29.21h.2a4.33,4.33,0,0,1,1.29-.21m0,0a4.3,4.3,0,0,0-1.3.21H7.93a4.3,4.3,0,0,0-1.3-.21,3,3,0,0,0-.76.09h0l-.11.06a.1.1,0,0,0,0,.08l0,.3a.12.12,0,0,0,.07.1s0,0,0,0a1,1,0,0,0,1.11,1l.25,0c.57-.1.75-.82.78-1l0,0,.09,0H8l.09,0a0,0,0,0,1,0,0c0,.14.22.86.78,1l.26,0a1,1,0,0,0,1.1-1,0,0,0,0,1,0,0,.12.12,0,0,0,.07-.1v-.3a.1.1,0,0,0,0-.08l-.12-.06h0a3.14,3.14,0,0,0-.77-.09Z"/><path class="cls-1" d="M8.52,8A1.94,1.94,0,0,1,10,8a.69.69,0,0,1,0,.6.8.8,0,0,1-1.54-.4S8.47,8,8.52,8Z"/><path class="cls-1" d="M7.57,8a1.94,1.94,0,0,0-1.5,0,.69.69,0,0,0,0,.6.8.8,0,0,0,1.54-.4S7.61,8,7.57,8Z"/><path class="cls-4" d="M6.66,8.47h0v0a.14.14,0,0,1,.06-.12l.1,0h.06l.11,0a.21.21,0,0,1,.08.21s0,0,0,0A.26.26,0,0,0,7,8.26a.37.37,0,0,0-.14-.07.28.28,0,0,0-.18,0,.21.21,0,0,0-.11.15.2.2,0,0,0,0,.11s.06,0,0,0Z"/><path class="cls-4" d="M9,8.52H9V8.45a.21.21,0,0,1,.07-.12l.1,0h.06a.27.27,0,0,1,.11.05.26.26,0,0,1,.08.21,0,0,0,0,0,.05,0,.33.33,0,0,0-.08-.24.37.37,0,0,0-.14-.07.33.33,0,0,0-.19,0,.19.19,0,0,0-.1.14.2.2,0,0,0,0,.11s0,0,0,0Z"/><path class="cls-5" d="M5.14,11.63l.18.15Z"/><path class="cls-5" d="M5.32,11.78l.12.09Z"/><path class="cls-5" d="M5.69,12.05l.13.08Z"/><path class="cls-5" d="M11.45,5.85,11.2,6A4,4,0,0,0,4,8.42,4.15,4.15,0,0,0,4.27,10l-.21.17a.3.3,0,0,0,0-.1H4L4,10c0-.09-.07-.18-.1-.27V9.64a3,3,0,0,1-.09-.32V9.21l0-.17s0-.07,0-.11,0-.11,0-.17,0-.11,0-.17V8.46h0c0-.11,0-.21,0-.31a4.3,4.3,0,0,1,3.83-4H8A4.31,4.31,0,0,1,11.1,5.43l.08.09A3.92,3.92,0,0,1,11.45,5.85Z"/><path class="cls-3" d="M13.15,8.42A2.39,2.39,0,0,1,14,6.56.49.49,0,0,0,14.14,6l-.47-.81-.47-.83a.5.5,0,0,0-.59-.21,2.31,2.31,0,0,1-.83.15,2.42,2.42,0,0,1-2.37-2,.48.48,0,0,0-.47-.4H7.06a.48.48,0,0,0-.47.4,2.41,2.41,0,0,1-2.37,2,2.31,2.31,0,0,1-.83-.15.5.5,0,0,0-.59.21L1.86,6A.49.49,0,0,0,2,6.56a2.39,2.39,0,0,1,0,3.72.49.49,0,0,0-.11.61l.49.85.45.79a.49.49,0,0,0,.58.21,2.36,2.36,0,0,1,.84-.15,2.41,2.41,0,0,1,2.37,2,.48.48,0,0,0,.48.4H8.94a.48.48,0,0,0,.47-.4,2.41,2.41,0,0,1,2.37-2,2.54,2.54,0,0,1,.83.14.48.48,0,0,0,.59-.2l.94-1.64a.49.49,0,0,0-.11-.61A2.39,2.39,0,0,1,13.15,8.42Zm-.85.06v.21c0,.06,0,.11,0,.17a5,5,0,0,1-.11.64,4.22,4.22,0,0,1-3.1,3.09,5,5,0,0,1-.74.12H8a4.62,4.62,0,0,1-.65-.05l-.15,0a4.31,4.31,0,0,1-1.38-.51l-.13-.08L5.62,12l-.12-.08-.06-.05-.12-.09-.09-.07-.09-.08a4.22,4.22,0,0,1-.54-.58l-.12-.16a4.77,4.77,0,0,1-.42-.73.3.3,0,0,0,0-.1H4L4,10c0-.09-.07-.18-.1-.27V9.64a3,3,0,0,1-.09-.32V9.27s0,0,0-.06l0-.17s0-.07,0-.11,0-.11,0-.17,0-.11,0-.17V8.46h0c0-.11,0-.21,0-.31a.66.66,0,0,1,0-.14A4.31,4.31,0,0,1,7.4,4.16H8A4.31,4.31,0,0,1,11.1,5.43l.08.09a3.92,3.92,0,0,1,.27.33l.15.21.09.14.08.15.12.22a4.44,4.44,0,0,1,.3.89.83.83,0,0,1,0,.15v0l0,.16a4.21,4.21,0,0,1,0,.62Z"/><path class="cls-2" d="M11.2,6A4,4,0,0,0,4,8.42,4.15,4.15,0,0,0,4.27,10,4,4,0,0,0,8,12.46a4.1,4.1,0,0,0,2-.54l.26-.17A4,4,0,0,0,11.2,6ZM4.82,9.55a3.57,3.57,0,0,1-.19-1.13,3.33,3.33,0,1,1,.19,1.13Z"/><path class="cls-6" d="M7.52,10.55a.81.81,0,0,0,1-.39"/><path class="cls-2" d="M7.65,6.61s-.75-1,.15-1.07C7.8,5.54,7.34,5.73,7.65,6.61Z"/></svg>